<mxfile host="Electron" agent="Mozilla/5.0 (Windows NT 10.0; Win64; x64) AppleWebKit/537.36 (KHTML, like Gecko) draw.io/24.7.17 Chrome/128.0.6613.36 Electron/32.0.1 Safari/537.36" version="24.7.17">
  <diagram name="Страница — 1" id="fuBYI_S4vZk9Xxi2a3bl">
    <mxGraphModel dx="1969" dy="993" grid="1" gridSize="10" guides="1" tooltips="1" connect="1" arrows="1" fold="1" page="1" pageScale="1" pageWidth="1169" pageHeight="1654" math="0" shadow="0">
      <root>
        <mxCell id="0" />
        <mxCell id="1" parent="0" />
        <mxCell id="EuVw9vk-sqjzFGuYe3wy-1" value="#include&amp;lt;iostream&amp;gt;&lt;div&gt;#include&amp;lt;clocale&amp;gt;&lt;/div&gt;&lt;div&gt;using namespace std;&lt;/div&gt;&lt;div&gt;float x, a;&lt;/div&gt;&lt;div&gt;double eps = 0.000001&lt;/div&gt;" style="strokeWidth=2;html=1;shape=mxgraph.flowchart.annotation_1;align=left;pointerEvents=1;" parent="1" vertex="1">
          <mxGeometry x="720" y="40" width="137" height="90" as="geometry" />
        </mxCell>
        <mxCell id="ZU98SF-KeU9KJIM9l25P-5" value="" style="edgeStyle=orthogonalEdgeStyle;rounded=0;orthogonalLoop=1;jettySize=auto;html=1;" edge="1" parent="1" source="EuVw9vk-sqjzFGuYe3wy-2" target="ZU98SF-KeU9KJIM9l25P-1">
          <mxGeometry relative="1" as="geometry" />
        </mxCell>
        <mxCell id="EuVw9vk-sqjzFGuYe3wy-2" value="Начало" style="ellipse;whiteSpace=wrap;html=1;" parent="1" vertex="1">
          <mxGeometry x="515" y="10" width="140" height="40" as="geometry" />
        </mxCell>
        <mxCell id="EuVw9vk-sqjzFGuYe3wy-3" style="edgeStyle=orthogonalEdgeStyle;rounded=0;orthogonalLoop=1;jettySize=auto;html=1;exitX=0.5;exitY=1;exitDx=0;exitDy=0;exitPerimeter=0;" parent="1" source="EuVw9vk-sqjzFGuYe3wy-1" target="EuVw9vk-sqjzFGuYe3wy-1" edge="1">
          <mxGeometry relative="1" as="geometry" />
        </mxCell>
        <mxCell id="FFll26ET7a211EKfpw_X-3" value="" style="edgeStyle=orthogonalEdgeStyle;rounded=0;orthogonalLoop=1;jettySize=auto;html=1;" parent="1" source="EuVw9vk-sqjzFGuYe3wy-4" target="FFll26ET7a211EKfpw_X-2" edge="1">
          <mxGeometry relative="1" as="geometry" />
        </mxCell>
        <mxCell id="EuVw9vk-sqjzFGuYe3wy-4" value="int main()" style="shape=process;whiteSpace=wrap;html=1;backgroundOutline=1;" parent="1" vertex="1">
          <mxGeometry x="527" y="370" width="115" height="20" as="geometry" />
        </mxCell>
        <mxCell id="EuVw9vk-sqjzFGuYe3wy-6" value="" style="endArrow=none;dashed=1;html=1;dashPattern=1 3;strokeWidth=2;rounded=0;entryX=0;entryY=0.5;entryDx=0;entryDy=0;entryPerimeter=0;" parent="1" target="EuVw9vk-sqjzFGuYe3wy-1" edge="1">
          <mxGeometry width="50" height="50" relative="1" as="geometry">
            <mxPoint x="590" y="85" as="sourcePoint" />
            <mxPoint x="600" y="110" as="targetPoint" />
          </mxGeometry>
        </mxCell>
        <mxCell id="EuVw9vk-sqjzFGuYe3wy-28" style="edgeStyle=orthogonalEdgeStyle;rounded=0;orthogonalLoop=1;jettySize=auto;html=1;exitX=0.5;exitY=1;exitDx=0;exitDy=0;entryX=0.5;entryY=0;entryDx=0;entryDy=0;" parent="1" source="EuVw9vk-sqjzFGuYe3wy-7" target="EuVw9vk-sqjzFGuYe3wy-8" edge="1">
          <mxGeometry relative="1" as="geometry" />
        </mxCell>
        <mxCell id="EuVw9vk-sqjzFGuYe3wy-7" value="x=2;" style="rounded=0;whiteSpace=wrap;html=1;" parent="1" vertex="1">
          <mxGeometry x="531.5" y="470" width="112.5" height="20" as="geometry" />
        </mxCell>
        <mxCell id="FFll26ET7a211EKfpw_X-8" style="edgeStyle=orthogonalEdgeStyle;rounded=0;orthogonalLoop=1;jettySize=auto;html=1;entryX=0.5;entryY=0;entryDx=0;entryDy=0;" parent="1" source="EuVw9vk-sqjzFGuYe3wy-8" target="EuVw9vk-sqjzFGuYe3wy-12" edge="1">
          <mxGeometry relative="1" as="geometry">
            <Array as="points">
              <mxPoint x="585" y="560" />
              <mxPoint x="585" y="560" />
            </Array>
          </mxGeometry>
        </mxCell>
        <mxCell id="EuVw9vk-sqjzFGuYe3wy-8" value="a=0;" style="rounded=0;whiteSpace=wrap;html=1;" parent="1" vertex="1">
          <mxGeometry x="531.5" y="520" width="112.5" height="20" as="geometry" />
        </mxCell>
        <mxCell id="EuVw9vk-sqjzFGuYe3wy-16" style="edgeStyle=orthogonalEdgeStyle;rounded=0;orthogonalLoop=1;jettySize=auto;html=1;exitX=0.5;exitY=1;exitDx=0;exitDy=0;entryX=0.5;entryY=0;entryDx=0;entryDy=0;" parent="1" source="EuVw9vk-sqjzFGuYe3wy-12" target="EuVw9vk-sqjzFGuYe3wy-13" edge="1">
          <mxGeometry relative="1" as="geometry" />
        </mxCell>
        <mxCell id="EuVw9vk-sqjzFGuYe3wy-21" style="edgeStyle=orthogonalEdgeStyle;rounded=0;orthogonalLoop=1;jettySize=auto;html=1;exitX=1;exitY=0.5;exitDx=0;exitDy=0;entryX=0.5;entryY=0;entryDx=0;entryDy=0;" parent="1" source="EuVw9vk-sqjzFGuYe3wy-12" target="EuVw9vk-sqjzFGuYe3wy-19" edge="1">
          <mxGeometry relative="1" as="geometry" />
        </mxCell>
        <mxCell id="EuVw9vk-sqjzFGuYe3wy-12" value="while (abs(x - a) &amp;gt; eps)" style="rhombus;whiteSpace=wrap;html=1;" parent="1" vertex="1">
          <mxGeometry x="490.62" y="570" width="189.38" height="46" as="geometry" />
        </mxCell>
        <mxCell id="ZU98SF-KeU9KJIM9l25P-24" style="edgeStyle=orthogonalEdgeStyle;rounded=0;orthogonalLoop=1;jettySize=auto;html=1;entryX=0.5;entryY=0;entryDx=0;entryDy=0;" edge="1" parent="1" source="EuVw9vk-sqjzFGuYe3wy-13" target="ZU98SF-KeU9KJIM9l25P-18">
          <mxGeometry relative="1" as="geometry" />
        </mxCell>
        <mxCell id="EuVw9vk-sqjzFGuYe3wy-13" value="a = x;" style="rounded=0;whiteSpace=wrap;html=1;" parent="1" vertex="1">
          <mxGeometry x="537.81" y="636" width="95" height="30" as="geometry" />
        </mxCell>
        <mxCell id="EuVw9vk-sqjzFGuYe3wy-15" style="edgeStyle=orthogonalEdgeStyle;rounded=0;orthogonalLoop=1;jettySize=auto;html=1;exitX=0.5;exitY=1;exitDx=0;exitDy=0;entryX=0;entryY=0.5;entryDx=0;entryDy=0;" parent="1" source="EuVw9vk-sqjzFGuYe3wy-14" target="EuVw9vk-sqjzFGuYe3wy-12" edge="1">
          <mxGeometry relative="1" as="geometry">
            <Array as="points">
              <mxPoint x="585" y="910" />
              <mxPoint x="380" y="910" />
              <mxPoint x="380" y="593" />
            </Array>
          </mxGeometry>
        </mxCell>
        <mxCell id="EuVw9vk-sqjzFGuYe3wy-14" value="x = a - function(a) / fd(a);&amp;nbsp;" style="rounded=0;whiteSpace=wrap;html=1;" parent="1" vertex="1">
          <mxGeometry x="412.37" y="850" width="343.75" height="30" as="geometry" />
        </mxCell>
        <mxCell id="EuVw9vk-sqjzFGuYe3wy-22" style="edgeStyle=orthogonalEdgeStyle;rounded=0;orthogonalLoop=1;jettySize=auto;html=1;exitX=0.5;exitY=1;exitDx=0;exitDy=0;entryX=0.5;entryY=0;entryDx=0;entryDy=0;" parent="1" source="EuVw9vk-sqjzFGuYe3wy-19" target="EuVw9vk-sqjzFGuYe3wy-20" edge="1">
          <mxGeometry relative="1" as="geometry" />
        </mxCell>
        <mxCell id="EuVw9vk-sqjzFGuYe3wy-19" value="cout &lt;&lt; &quot;Корень: &quot; &lt;&lt; x &lt;&lt; endl;" style="shape=parallelogram;perimeter=parallelogramPerimeter;whiteSpace=wrap;html=1;fixedSize=1;" parent="1" vertex="1">
          <mxGeometry x="780" y="820" width="240" height="60" as="geometry" />
        </mxCell>
        <mxCell id="EuVw9vk-sqjzFGuYe3wy-20" value="return 0;" style="ellipse;whiteSpace=wrap;html=1;" parent="1" vertex="1">
          <mxGeometry x="840" y="920" width="120" height="50" as="geometry" />
        </mxCell>
        <mxCell id="EuVw9vk-sqjzFGuYe3wy-23" value="}" style="text;html=1;align=center;verticalAlign=middle;resizable=0;points=[];autosize=1;strokeColor=none;fillColor=none;" parent="1" vertex="1">
          <mxGeometry x="960" y="950" width="30" height="30" as="geometry" />
        </mxCell>
        <mxCell id="EuVw9vk-sqjzFGuYe3wy-24" value="{" style="text;html=1;align=center;verticalAlign=middle;resizable=0;points=[];autosize=1;strokeColor=none;fillColor=none;" parent="1" vertex="1">
          <mxGeometry x="537.81" y="603" width="30" height="30" as="geometry" />
        </mxCell>
        <mxCell id="EuVw9vk-sqjzFGuYe3wy-25" value="}" style="text;html=1;align=center;verticalAlign=middle;resizable=0;points=[];autosize=1;strokeColor=none;fillColor=none;" parent="1" vertex="1">
          <mxGeometry x="920" y="780" width="30" height="30" as="geometry" />
        </mxCell>
        <mxCell id="EuVw9vk-sqjzFGuYe3wy-26" value="{" style="text;html=1;align=center;verticalAlign=middle;resizable=0;points=[];autosize=1;strokeColor=none;fillColor=none;" parent="1" vertex="1">
          <mxGeometry x="537.81" y="390" width="30" height="30" as="geometry" />
        </mxCell>
        <mxCell id="FFll26ET7a211EKfpw_X-6" style="edgeStyle=orthogonalEdgeStyle;rounded=0;orthogonalLoop=1;jettySize=auto;html=1;entryX=0.476;entryY=0;entryDx=0;entryDy=0;entryPerimeter=0;" parent="1" source="FFll26ET7a211EKfpw_X-2" target="EuVw9vk-sqjzFGuYe3wy-7" edge="1">
          <mxGeometry relative="1" as="geometry">
            <mxPoint x="584.995" y="460" as="targetPoint" />
          </mxGeometry>
        </mxCell>
        <mxCell id="FFll26ET7a211EKfpw_X-2" value="setlocale(LC_ALL,&quot;Rus&quot;);" style="rounded=0;whiteSpace=wrap;html=1;" parent="1" vertex="1">
          <mxGeometry x="510.9" y="420" width="148.19" height="30" as="geometry" />
        </mxCell>
        <mxCell id="ZU98SF-KeU9KJIM9l25P-7" style="edgeStyle=orthogonalEdgeStyle;rounded=0;orthogonalLoop=1;jettySize=auto;html=1;entryX=0.5;entryY=0;entryDx=0;entryDy=0;" edge="1" parent="1" source="ZU98SF-KeU9KJIM9l25P-1" target="ZU98SF-KeU9KJIM9l25P-2">
          <mxGeometry relative="1" as="geometry" />
        </mxCell>
        <mxCell id="ZU98SF-KeU9KJIM9l25P-1" value="double function(double a)" style="shape=process;whiteSpace=wrap;html=1;backgroundOutline=1;" vertex="1" parent="1">
          <mxGeometry x="494.5" y="100" width="180" height="40" as="geometry" />
        </mxCell>
        <mxCell id="ZU98SF-KeU9KJIM9l25P-10" style="edgeStyle=orthogonalEdgeStyle;rounded=0;orthogonalLoop=1;jettySize=auto;html=1;entryX=0.5;entryY=0;entryDx=0;entryDy=0;" edge="1" parent="1" source="ZU98SF-KeU9KJIM9l25P-2" target="ZU98SF-KeU9KJIM9l25P-3">
          <mxGeometry relative="1" as="geometry" />
        </mxCell>
        <mxCell id="ZU98SF-KeU9KJIM9l25P-2" value="return (pow(a, 2)) * 0.1 - a * log(a);" style="rounded=0;whiteSpace=wrap;html=1;" vertex="1" parent="1">
          <mxGeometry x="424" y="170" width="320.5" height="30" as="geometry" />
        </mxCell>
        <mxCell id="ZU98SF-KeU9KJIM9l25P-11" style="edgeStyle=orthogonalEdgeStyle;rounded=0;orthogonalLoop=1;jettySize=auto;html=1;entryX=0.5;entryY=0;entryDx=0;entryDy=0;" edge="1" parent="1" source="ZU98SF-KeU9KJIM9l25P-3" target="ZU98SF-KeU9KJIM9l25P-4">
          <mxGeometry relative="1" as="geometry" />
        </mxCell>
        <mxCell id="ZU98SF-KeU9KJIM9l25P-3" value="double fd(double a)" style="shape=process;whiteSpace=wrap;html=1;backgroundOutline=1;" vertex="1" parent="1">
          <mxGeometry x="494.25" y="230" width="180" height="40" as="geometry" />
        </mxCell>
        <mxCell id="ZU98SF-KeU9KJIM9l25P-12" style="edgeStyle=orthogonalEdgeStyle;rounded=0;orthogonalLoop=1;jettySize=auto;html=1;entryX=0.5;entryY=0;entryDx=0;entryDy=0;" edge="1" parent="1" source="ZU98SF-KeU9KJIM9l25P-4" target="EuVw9vk-sqjzFGuYe3wy-4">
          <mxGeometry relative="1" as="geometry" />
        </mxCell>
        <mxCell id="ZU98SF-KeU9KJIM9l25P-4" value="return (0.2 * a - log(a) - 1);" style="rounded=0;whiteSpace=wrap;html=1;" vertex="1" parent="1">
          <mxGeometry x="424" y="300" width="320.5" height="30" as="geometry" />
        </mxCell>
        <mxCell id="ZU98SF-KeU9KJIM9l25P-13" value="{" style="text;html=1;align=center;verticalAlign=middle;resizable=0;points=[];autosize=1;strokeColor=none;fillColor=none;" vertex="1" parent="1">
          <mxGeometry x="531.5" y="140" width="30" height="30" as="geometry" />
        </mxCell>
        <mxCell id="ZU98SF-KeU9KJIM9l25P-14" value="{" style="text;html=1;align=center;verticalAlign=middle;resizable=0;points=[];autosize=1;strokeColor=none;fillColor=none;" vertex="1" parent="1">
          <mxGeometry x="531.5" y="20" width="30" height="30" as="geometry" />
        </mxCell>
        <mxCell id="ZU98SF-KeU9KJIM9l25P-15" value="{" style="text;html=1;align=center;verticalAlign=middle;resizable=0;points=[];autosize=1;strokeColor=none;fillColor=none;" vertex="1" parent="1">
          <mxGeometry x="537.81" y="270" width="30" height="30" as="geometry" />
        </mxCell>
        <mxCell id="ZU98SF-KeU9KJIM9l25P-16" value="}" style="text;html=1;align=center;verticalAlign=middle;resizable=0;points=[];autosize=1;strokeColor=none;fillColor=none;" vertex="1" parent="1">
          <mxGeometry x="602.81" y="330" width="30" height="30" as="geometry" />
        </mxCell>
        <mxCell id="ZU98SF-KeU9KJIM9l25P-17" value="}" style="text;html=1;align=center;verticalAlign=middle;resizable=0;points=[];autosize=1;strokeColor=none;fillColor=none;" vertex="1" parent="1">
          <mxGeometry x="602.81" y="200" width="30" height="30" as="geometry" />
        </mxCell>
        <mxCell id="ZU98SF-KeU9KJIM9l25P-25" style="edgeStyle=orthogonalEdgeStyle;rounded=0;orthogonalLoop=1;jettySize=auto;html=1;entryX=0.5;entryY=0;entryDx=0;entryDy=0;" edge="1" parent="1" source="ZU98SF-KeU9KJIM9l25P-18" target="ZU98SF-KeU9KJIM9l25P-19">
          <mxGeometry relative="1" as="geometry" />
        </mxCell>
        <mxCell id="ZU98SF-KeU9KJIM9l25P-18" value="iter++;" style="rounded=0;whiteSpace=wrap;html=1;" vertex="1" parent="1">
          <mxGeometry x="537" y="700" width="95" height="30" as="geometry" />
        </mxCell>
        <mxCell id="ZU98SF-KeU9KJIM9l25P-26" style="edgeStyle=orthogonalEdgeStyle;rounded=0;orthogonalLoop=1;jettySize=auto;html=1;entryX=0.5;entryY=0;entryDx=0;entryDy=0;" edge="1" parent="1" source="ZU98SF-KeU9KJIM9l25P-19" target="EuVw9vk-sqjzFGuYe3wy-14">
          <mxGeometry relative="1" as="geometry" />
        </mxCell>
        <mxCell id="ZU98SF-KeU9KJIM9l25P-19" value="cout&amp;lt;&amp;lt;&quot;Итерация&quot;&amp;lt;&amp;lt;iter&amp;lt;&amp;lt;&quot;:x= &quot;&amp;lt;&amp;lt; a&amp;lt;&amp;lt; endl;" style="shape=parallelogram;perimeter=parallelogramPerimeter;whiteSpace=wrap;html=1;fixedSize=1;" vertex="1" parent="1">
          <mxGeometry x="444.25" y="750" width="280" height="60" as="geometry" />
        </mxCell>
      </root>
    </mxGraphModel>
  </diagram>
</mxfile>
